Coordinates
version=1
nRows=24
nColumns=24
inDegrees=yes

Units are S.I. units (second, meters, Newtons, ...)
Angles are in degrees.

endheader
time	pelvis_tilt	pelvis_list	pelvis_rotation	pelvis_tx	pelvis_ty	pelvis_tz	hip_flexion_r	hip_adduction_r	hip_rotation_r	knee_angle_r	ankle_angle_r	subtalar_angle_r	mtp_angle_r	hip_flexion_l	hip_adduction_l	hip_rotation_l	knee_angle_l	ankle_angle_l	subtalar_angle_l	mtp_angle_l	lumbar_extension	lumbar_bending	lumbar_rotation
      5.18000000	      0.50126168	      4.19699823	     -2.73299218	      1.67856403	      0.92709326	     -0.16047062	      3.55282674	     -6.32120280	     -3.79207047	    -61.03852629	    -22.76125036	     -1.50309771	      0.00000000	     22.62258948	      8.56738402	     -3.27850216	    -29.17394753	     11.12319546	    -15.70179596	      0.00000000	    -27.85898729	    -11.85646124	      3.70247591
      5.19000000	      0.38540683	      4.57453402	     -2.63372914	      1.69092815	      0.92865934	     -0.16129551	      5.69855875	     -6.82029269	     -3.66646995	    -63.24514225	    -22.71070620	     -3.18346919	      0.00000000	     21.67117820	      9.06850597	     -3.32397330	    -28.70424827	     11.80278060	    -15.44761407	      0.00000000	    -27.79872908	    -12.10497042	      3.18353597
      5.20000000	      0.32916441	      4.81088093	     -2.45140962	      1.70317866	      0.93048756	     -0.16227847	      7.67771538	     -7.16215814	     -3.60688609	    -65.07417862	    -21.71162469	     -4.39127874	      0.00000000	     20.60918282	      9.49012594	     -3.12363413	    -28.16609676	     12.34232829	    -15.31965357	      0.00000000	    -27.84570665	    -12.14903656	      2.64792216
      5.21000000	      0.39594866	      4.87477865	     -2.22557834	      1.71534052	      0.93270464	     -0.16330816	      9.41013948	     -7.30828703	     -3.61480441	    -66.46948969	    -20.04287092	     -5.25534943	      0.00000000	     19.35889902	      9.76941231	     -2.73994701	    -27.55110949	     12.81867475	    -15.24086509	      0.00000000	    -28.05854655	    -11.98006924	      2.17331406
      5.22000000	      0.46723110	      4.81788616	     -1.97997759	      1.72743654	      0.93506321	     -0.16435059	     11.04903888	     -7.30847282	     -3.65472792	    -67.47521543	    -17.84708311	     -5.75664033	      0.00000000	     18.05884244	      9.93101379	     -2.25912959	    -26.86142837	     13.22006559	    -15.23978496	      0.00000000	    -28.27397111	    -11.66711150	      1.73540634
      5.23000000	      0.53882722	      4.65266357	     -1.70477876	      1.73939701	      0.93749122	     -0.16540027	     12.60469544	     -7.16975487	     -3.72094336	    -68.11093525	    -15.25781951	     -5.88722263	      0.00000000	     16.73575950	      9.98157850	     -1.67681324	    -26.12839757	     13.53618348	    -15.30472726	      0.00000000	    -28.50579080	    -11.22792671	      1.37794988
      5.24000000	      0.61383358	      4.43899354	     -1.41256457	      1.75129707	      0.93993914	     -0.16641389	     14.07275730	     -6.95878488	     -3.81335812	    -68.38457861	    -12.49648942	     -5.79697007	      0.00000000	     15.38004978	      9.96693672	     -1.07057008	    -25.32992350	     13.74844802	    -15.43339872	      0.00000000	    -28.73692764	    -10.73677017	      1.04453339
      5.25000000	      0.65443485	      4.17610022	     -1.11724824	      1.76313716	      0.94226240	     -0.16738217	     15.50597188	     -6.66393087	     -3.89684766	    -68.32575692	     -9.76058801	     -5.54576239	      0.00000000	     14.03962064	      9.87716825	     -0.44193907	    -24.48518269	     14.01012188	    -15.52076074	      0.00000000	    -28.91372869	    -10.19746316	      0.76321230
      5.26000000	      0.70084204	      3.95944100	     -0.79270207	      1.77493749	      0.94448485	     -0.16831004	     16.85141245	     -6.41558163	     -4.02409464	    -67.95187218	     -7.10543853	     -5.25919444	      0.00000000	     12.67516982	      9.81521786	      0.18716487	    -23.58380515	     14.12361017	    -15.66066662	      0.00000000	    -29.09676153	     -9.71723038	      0.46553708
      5.27000000	      0.72997081	      3.73087557	     -0.48220133	      1.78672498	      0.94653268	     -0.16916730	     18.14016606	     -6.13219300	     -4.13810349	    -67.26951926	     -4.71342893	     -4.98854185	      0.00000000	     11.30251843	      9.71437613	      0.84770121	    -22.62440650	     14.26186156	    -15.79258842	      0.00000000	    -29.23682425	     -9.23906300	      0.21578889
      5.28000000	      0.70438831	      3.50076997	     -0.16805709	      1.79844243	      0.94831804	     -0.16992500	     19.40892716	     -5.83652733	     -4.27601188	    -66.29333993	     -2.56205072	     -4.78282298	      0.00000000	     10.00705668	      9.57082383	      1.40702662	    -21.67609741	     14.40543376	    -15.85605644	      0.00000000	    -29.30960838	     -8.77268887	     -0.00452164
      5.29000000	      0.65986901	      3.29064066	      0.14098944	      1.81015191	      0.94987579	     -0.17062124	     20.61116544	     -5.56480659	     -4.43665259	    -65.02598467	     -0.68949658	     -4.67033483	      0.00000000	      8.72539160	      9.42462849	      1.96957936	    -20.70237962	     14.53810697	    -15.91967797	      0.00000000	    -29.34829290	     -8.34024416	     -0.21875300
      5.30000000	      0.53969497	      3.06401386	      0.39371611	      1.82186687	      0.95114485	     -0.17112171	     21.80516873	     -5.24855106	     -4.56909931	    -63.45192248	      0.86397148	     -4.68486429	      0.00000000	      7.53308230	      9.22061259	      2.45134927	    -19.72936646	     14.69031096	    -15.91506295	      0.00000000	    -29.27419731	     -7.94120823	     -0.31266787
      5.31000000	      0.54615071	      2.91147493	      0.76779056	      1.83356004	      0.95231567	     -0.17188459	     22.72656679	     -5.11299772	     -4.90232307	    -61.58293807	      2.28645983	     -4.77306970	      0.00000000	      6.20244520	      9.10955670	      3.07752632	    -18.74934284	     14.79728389	    -16.01276302	      0.00000000	    -29.37707710	     -7.53134550	     -0.60400746
      5.32000000	      0.45764384	      2.73436470	      1.07781358	      1.84521599	      0.95313788	     -0.17240571	     23.64183669	     -4.91990611	     -5.20510900	    -59.39262536	      3.46520684	     -4.97490477	      0.00000000	      5.01928304	      8.93034771	      3.56372320	    -17.83568285	     14.94307079	    -16.03306939	      0.00000000	    -29.36534806	     -7.15198119	     -0.78315602
      5.33000000	      0.34573454	      2.58550517	      1.38260215	      1.85691018	      0.95367295	     -0.17291154	     24.45479893	     -4.78011588	     -5.56049196	    -56.89186203	      4.40223899	     -5.24944406	      0.00000000	      3.87118310	      8.76876265	      4.03574883	    -16.93464583	     15.10074949	    -16.07338852	      0.00000000	    -29.31764504	     -6.79362852	     -0.98255586
      5.34000000	      0.27020586	      2.49299014	      1.73410422	      1.86863262	      0.95401601	     -0.17339730	     25.07503308	     -4.73840522	     -6.02888121	    -54.06778330	      5.16052573	     -5.56116734	      0.00000000	      2.70239306	      8.65122131	      4.56119568	    -16.07690689	     15.23833373	    -16.10214668	      0.00000000	    -29.32498724	     -6.50163516	     -1.18582554
      5.35000000	      0.14445349	      2.43324953	      2.09093565	      1.88040852	      0.95401874	     -0.17382816	     25.60668580	     -4.73506831	     -6.53075491	    -50.94004942	      5.72401333	     -5.82251563	      0.00000000	      1.61185298	      8.55369408	      5.03630228	    -15.26430431	     15.39396938	    -16.14956592	      0.00000000	    -29.27387608	     -6.23455362	     -1.47698023
      5.36000000	      0.04697911	      2.44319648	      2.49202524	      1.89227657	      0.95379420	     -0.17427413	     25.94997666	     -4.83036870	     -7.12964790	    -47.51812795	      6.15451523	     -5.95003693	      0.00000000	      0.49898207	      8.51578026	      5.54302769	    -14.48553764	     15.53863705	    -16.19265898	      0.00000000	    -29.25645199	     -6.02950245	     -1.80331878
      5.37000000	     -0.03910239	      2.52377603	      2.92622970	      1.90426433	      0.95331706	     -0.17469406	     26.13125107	     -5.00134364	     -7.78857758	    -43.83215119	      6.46702767	     -5.85490842	      0.00000000	     -0.62688530	      8.53361089	      6.05355634	    -13.72838869	     15.68001403	    -16.22671711	      0.00000000	    -29.25076611	     -5.89007407	     -2.18908197
      5.38000000	     -0.05337750	      2.68119422	      3.39142994	      1.91638585	      0.95269143	     -0.17508837	     26.08573978	     -5.24101912	     -8.50504991	    -39.90404460	      6.70376832	     -5.44526269	      0.00000000	     -1.83623164	      8.60739085	      6.49770752	    -12.97859892	     15.75622280	    -16.28583588	      0.00000000	    -29.33431397	     -5.81411828	     -2.66496059
      5.39000000	     -0.10552817	      2.91737774	      3.87213838	      1.92866878	      0.95173198	     -0.17541368	     25.96416536	     -5.52989712	     -9.21087072	    -35.81194492	      6.85628697	     -4.68904414	      0.00000000	     -3.02765815	      8.73992088	      6.96232218	    -12.22685737	     15.86084352	    -16.28545601	      0.00000000	    -29.35993878	     -5.82684190	     -3.20350974
      5.40000000	     -0.20326564	      3.23673907	      4.36468888	      1.94112977	      0.95042737	     -0.17568856	     25.79918652	     -5.88116392	     -9.94064843	    -31.62610659	      7.01312871	     -3.53266033	      0.00000000	     -4.19296268	      8.93571852	      7.40888122	    -11.47977242	     15.99922073	    -16.19853891	      0.00000000	    -29.31211493	     -5.94507381	     -3.72451861
      5.41000000	     -0.09943558	      3.56708248	      4.85393128	      1.95376410	      0.94925589	     -0.17587278	     25.30182531	     -6.16360310	    -10.57503079	    -27.31593656	      7.01549482	     -2.12923025	      0.00000000	     -5.61290875	      9.09590147	      7.83876030	    -10.68298466	     15.98911632	    -16.21827465	      0.00000000	    -29.50971782	     -6.04024067	     -4.35630994
